<?xml version="1.0" encoding="utf-8"?>
<!-- Generator: Adobe Illustrator 15.0.0, SVG Export Plug-In . SVG Version: 6.00 Build 0)  -->
<!DOCTYPE svg PUBLIC "-//W3C//DTD SVG 1.1//EN" "http://www.w3.org/Graphics/SVG/1.1/DTD/svg11.dtd">
<svg version="1.1" id="Layer_1" xmlns="http://www.w3.org/2000/svg" xmlns:xlink="http://www.w3.org/1999/xlink" x="0px" y="0px"
	 width="100px" height="100px" viewBox="0 0 100 100" enable-background="new 0 0 100 100" xml:space="preserve">
<g id="pohja" display="none">
	<rect x="268" display="inline" width="314.551" height="315"/>
</g>
<g id="Layer_1_1_">
</g>
<g id="Layer_2">
	<g>
		<path fill="#FFFFFF" d="M82.308,85c-1.201,0-2.294-0.781-2.622-2.119c-0.437-1.671-0.437-3.344-0.437-4.681
			c0-2.787-0.11-4.234-1.858-5.908c-1.639-1.561-3.169-1.561-5.9-1.337c-2.84,0.222-6.446,0.446-10.053-2.898
			c-3.496-3.344-3.605-7.022-3.605-9.92c0-2.787-0.109-4.236-1.858-5.908c-1.747-1.561-3.169-1.561-5.899-1.337
			c-2.842,0.222-6.447,0.445-10.053-2.899c-3.497-3.343-3.606-7.021-3.606-9.919c0-2.786-0.109-4.236-1.857-5.908
			c-1.748-1.56-3.168-1.56-5.9-1.337c-2.841,0.223-6.445,0.446-10.052-2.898c-3.496-3.343-3.496-7.022-3.605-9.92v-0.223
			C15,16.227,16.202,15,17.731,15l0,0c1.53,0,2.731,1.227,2.731,2.787v0.223c0,2.787,0.109,4.236,1.858,5.908
			c1.748,1.56,3.168,1.56,5.899,1.337c2.843-0.224,6.447-0.446,10.054,2.897c3.497,3.344,3.497,7.021,3.604,9.92
			c0,2.786,0.109,4.235,1.858,5.907c1.748,1.561,3.168,1.561,5.899,1.337c2.841-0.223,6.447-0.446,10.054,2.898
			c3.495,3.344,3.605,7.021,3.605,9.92c0,2.785,0.11,4.234,1.857,5.907c1.749,1.56,3.169,1.56,5.901,1.337
			c2.841-0.222,6.446-0.445,10.052,2.898c3.497,3.344,3.607,7.022,3.607,9.921c0,1.226,0,2.341,0.218,3.343
			c0.328,1.449-0.547,3.01-1.967,3.345C82.745,85,82.526,85,82.308,85z"/>
	</g>
</g>
</svg>
