<?xml version="1.0" encoding="utf-8"?>
<!-- Generator: Adobe Illustrator 18.0.0, SVG Export Plug-In . SVG Version: 6.00 Build 0)  -->
<!DOCTYPE svg PUBLIC "-//W3C//DTD SVG 1.1//EN" "http://www.w3.org/Graphics/SVG/1.1/DTD/svg11.dtd">
<svg version="1.1" xmlns="http://www.w3.org/2000/svg" xmlns:xlink="http://www.w3.org/1999/xlink" x="0px" y="0px"
	 viewBox="0 0 70 70" enable-background="new 0 0 70 70" xml:space="preserve">
<g id="pohja" display="none">
	<rect x="0" display="inline" width="70.1" height="70.1"/>
</g>
<g id="Layer_1">
</g>
<g id="Layer_2">
	<g>
		<path fill="#FFFFFF" d="M9.9,59.9c-1.4,0-2.5-1.1-2.5-2.5V10.8c0-1.4,1.1-2.5,2.5-2.5s2.5,1.1,2.5,2.5v46.6
			C12.4,58.7,11.3,59.9,9.9,59.9z"/>
	</g>
	<g>
		<path fill="#FFFFFF" d="M27.2,53.8c-1.4,0-2.5-1.1-2.5-2.5V25.5c0-1.4,1.1-2.5,2.5-2.5s2.5,1.1,2.5,2.5v25.8
			C29.7,52.7,28.5,53.8,27.2,53.8z"/>
	</g>
	<g>
		<path fill="#FFFFFF" d="M44.4,39.8c-1.4,0-2.5-1.1-2.5-2.5V10.8c0-1.4,1.1-2.5,2.5-2.5s2.5,1.1,2.5,2.5v26.5
			C46.9,38.6,45.8,39.8,44.4,39.8z"/>
	</g>
	<g>
		<path fill="#FFFFFF" d="M61.7,59.9c-1.4,0-2.5-1.1-2.5-2.5V16.9c0-1.4,1.1-2.5,2.5-2.5s2.5,1.1,2.5,2.5v40.4
			C64.2,58.7,63.1,59.9,61.7,59.9z"/>
	</g>
</g>
</svg>
