<?xml version="1.0" encoding="utf-8"?>
<!-- Generator: Adobe Illustrator 18.0.0, SVG Export Plug-In . SVG Version: 6.00 Build 0)  -->
<!DOCTYPE svg PUBLIC "-//W3C//DTD SVG 1.1//EN" "http://www.w3.org/Graphics/SVG/1.1/DTD/svg11.dtd">
<svg version="1.1" xmlns="http://www.w3.org/2000/svg" xmlns:xlink="http://www.w3.org/1999/xlink" x="0px" y="0px"
	 viewBox="0 0 70 70" enable-background="new 0 0 70 70" xml:space="preserve">
<g id="pohja" display="none">
	<rect x="0" y="0" display="inline" width="69.9" height="70"/>
</g>
<g id="Layer_1">
</g>
<g id="Layer_2">
	<g>
		<path fill="#FFFFFF" d="M63.9,65.8c-1.1,0-2.1-0.7-2.4-1.9c-0.4-1.5-0.4-3-0.4-4.2c0-2.5-0.1-3.8-1.7-5.3C57.9,53,56.5,53,54,53.2
			c-2.6,0.2-5.9,0.4-9.2-2.6c-3.2-3-3.3-6.3-3.3-8.9c0-2.5-0.1-3.8-1.7-5.3c-1.6-1.4-2.9-1.4-5.4-1.2c-2.6,0.2-5.9,0.4-9.2-2.6
			c-3.2-3-3.3-6.3-3.3-8.9c0-2.5-0.1-3.8-1.7-5.3c-1.6-1.4-2.9-1.4-5.4-1.2c-2.6,0.2-5.9,0.4-9.2-2.6c-3.2-3-3.2-6.3-3.3-8.9l0-0.2
			c0-1.4,1.1-2.5,2.5-2.5c0,0,0,0,0,0c1.4,0,2.5,1.1,2.5,2.5l0,0.2c0,2.5,0.1,3.8,1.7,5.3c1.6,1.4,2.9,1.4,5.4,1.2
			c2.6-0.2,5.9-0.4,9.2,2.6c3.2,3,3.2,6.3,3.3,8.9c0,2.5,0.1,3.8,1.7,5.3c1.6,1.4,2.9,1.4,5.4,1.2c2.6-0.2,5.9-0.4,9.2,2.6
			c3.2,3,3.3,6.3,3.3,8.9c0,2.5,0.1,3.8,1.7,5.3c1.6,1.4,2.9,1.4,5.4,1.2c2.6-0.2,5.9-0.4,9.2,2.6c3.2,3,3.3,6.3,3.3,8.9
			c0,1.1,0,2.1,0.2,3c0.3,1.3-0.5,2.7-1.8,3C64.3,65.8,64.1,65.8,63.9,65.8z"/>
	</g>
</g>
</svg>
