<?xml version="1.0" encoding="utf-8"?>
<!-- Generator: Adobe Illustrator 18.0.0, SVG Export Plug-In . SVG Version: 6.00 Build 0)  -->
<!DOCTYPE svg PUBLIC "-//W3C//DTD SVG 1.1//EN" "http://www.w3.org/Graphics/SVG/1.1/DTD/svg11.dtd">
<svg version="1.1" xmlns="http://www.w3.org/2000/svg" xmlns:xlink="http://www.w3.org/1999/xlink" x="0px" y="0px"
	 viewBox="0 0 70 70" enable-background="new 0 0 70 70" xml:space="preserve">
<g id="pohja" display="none">
	<rect x="0" y="0" display="inline" width="70.2" height="70.1"/>
</g>
<g id="Layer_1">
</g>
<g id="Layer_2">
	<g>
		<path fill="#FFFFFF" d="M40.9,25.6c-6,0-11-4.9-11-10.9s4.9-10.9,11-10.9s11,4.9,11,10.9S46.9,25.6,40.9,25.6z M40.9,8.9
			c-3.3,0-6,2.6-6,5.9s2.7,5.9,6,5.9s6-2.6,6-5.9S44.2,8.9,40.9,8.9z"/>
	</g>
	<g>
		<path fill="#FFFFFF" d="M14.7,44.5c-6,0-11-4.9-11-10.9s4.9-10.9,11-10.9s11,4.9,11,10.9S20.8,44.5,14.7,44.5z M14.7,27.7
			c-3.3,0-6,2.6-6,5.9s2.7,5.9,6,5.9s6-2.6,6-5.9S18,27.7,14.7,27.7z"/>
	</g>
	<g>
		<path fill="#FFFFFF" d="M54,64.3c-6,0-11-4.9-11-10.9s4.9-10.9,11-10.9c6,0,11,4.9,11,10.9S60,64.3,54,64.3z M54,47.6
			c-3.3,0-6,2.6-6,5.9s2.7,5.9,6,5.9c3.3,0,6-2.6,6-5.9S57.3,47.6,54,47.6z"/>
	</g>
</g>
</svg>
