<?xml version="1.0" encoding="utf-8"?>
<!-- Generator: Adobe Illustrator 15.0.0, SVG Export Plug-In . SVG Version: 6.00 Build 0)  -->
<!DOCTYPE svg PUBLIC "-//W3C//DTD SVG 1.1//EN" "http://www.w3.org/Graphics/SVG/1.1/DTD/svg11.dtd">
<svg version="1.1" id="Layer_1" xmlns="http://www.w3.org/2000/svg" xmlns:xlink="http://www.w3.org/1999/xlink" x="0px" y="0px"
	 width="100px" height="100px" viewBox="0 0 100 100" enable-background="new 0 0 100 100" xml:space="preserve">
<g id="pohja" display="none">
	<rect x="268" display="inline" width="315.449" height="315.45"/>
</g>
<g id="Layer_1_1_">
</g>
<g id="Layer_2">
	<g>
		<path fill="#FFFFFF" d="M18.081,85C16.355,85,15,83.509,15,81.609V18.393c0-1.9,1.355-3.393,3.081-3.393s3.08,1.492,3.08,3.393
			v63.217C21.161,83.373,19.806,85,18.081,85z"/>
	</g>
	<g>
		<path fill="#FFFFFF" d="M39.401,76.726c-1.726,0-3.081-1.491-3.081-3.391V38.333c0-1.899,1.355-3.392,3.081-3.392
			s3.081,1.493,3.081,3.392v35.001C42.482,75.234,41.004,76.726,39.401,76.726z"/>
	</g>
	<g>
		<path fill="#FFFFFF" d="M60.599,57.733c-1.726,0-3.082-1.492-3.082-3.392V18.393c0-1.9,1.356-3.393,3.082-3.393
			c1.725,0,3.081,1.492,3.081,3.393v35.949C63.68,56.105,62.323,57.733,60.599,57.733z"/>
	</g>
	<g>
		<path fill="#FFFFFF" d="M81.918,85c-1.726,0-3.079-1.491-3.079-3.391V26.667c0-1.899,1.354-3.392,3.079-3.392
			c1.727,0,3.082,1.492,3.082,3.392v54.808C85,83.373,83.645,85,81.918,85z"/>
	</g>
</g>
</svg>
