<?xml version="1.0" encoding="utf-8"?>
<!-- Generator: Adobe Illustrator 15.0.0, SVG Export Plug-In . SVG Version: 6.00 Build 0)  -->
<!DOCTYPE svg PUBLIC "-//W3C//DTD SVG 1.1//EN" "http://www.w3.org/Graphics/SVG/1.1/DTD/svg11.dtd">
<svg version="1.1" id="Layer_1" xmlns="http://www.w3.org/2000/svg" xmlns:xlink="http://www.w3.org/1999/xlink" x="0px" y="0px"
	 width="100px" height="100px" viewBox="0 0 100 100" enable-background="new 0 0 100 100" xml:space="preserve">
<g id="pohja" display="none">
	<rect x="268" display="inline" width="315.9" height="315.45"/>
</g>
<g id="Layer_1_1_">
</g>
<g id="Layer_2">
	<g>
		<path fill="#FFFFFF" d="M57.479,40.223c-6.852,0-12.561-5.669-12.561-12.611S50.511,15,57.479,15
			c6.967,0,12.562,5.669,12.562,12.611S64.33,40.223,57.479,40.223z M57.479,20.9c-3.768,0-6.852,3.009-6.852,6.827
			s3.084,6.826,6.852,6.826s6.851-3.008,6.851-6.826S61.247,20.9,57.479,20.9z"/>
	</g>
	<g>
		<path fill="#FFFFFF" d="M27.561,62.091C20.709,62.091,15,56.421,15,49.48c0-6.943,5.596-12.612,12.561-12.612
			c6.967,0,12.561,5.669,12.561,12.612C40.122,56.421,34.527,62.091,27.561,62.091z M27.561,42.652
			c-3.768,0-6.852,3.009-6.852,6.826c0,3.819,3.084,6.828,6.852,6.828s6.852-3.009,6.852-6.828
			C34.412,45.661,31.329,42.652,27.561,42.652z"/>
	</g>
	<g>
		<path fill="#FFFFFF" d="M72.439,85c-6.852,0-12.562-5.669-12.562-12.611s5.595-12.611,12.562-12.611
			C79.292,59.777,85,65.446,85,72.389S79.29,85,72.439,85z M72.439,65.679c-3.769,0-6.852,3.008-6.852,6.826
			s3.083,6.826,6.852,6.826s6.853-3.008,6.853-6.826S76.208,65.679,72.439,65.679z"/>
	</g>
</g>
</svg>
